<?xml version="1.0" encoding="UTF-8" standalone="no"?>
<svg width="32px" height="32px" viewBox="0 0 32 32" version="1.1" xmlns="http://www.w3.org/2000/svg" xmlns:xlink="http://www.w3.org/1999/xlink">
    <!-- Generator: Sketch 44.1 (41455) - http://www.bohemiancoding.com/sketch -->
    <title>Arrow 2</title>
    <desc>Created with Sketch.</desc>
    <defs></defs>
    <g id="Page-2-Copy" stroke="none" stroke-width="1" fill="none" fill-rule="evenodd">
        <g id="14" stroke="#979797" fill-rule="nonzero">
            <path d="M11,22 C11,22.5522847 11.4477153,23 12,23 L20,23 C20.5522847,23 21,22.5522847 21,22 C21,21.4477153 20.5522847,21 20,21 L12,21 L13,22 L13,14 C13,13.4477153 12.5522847,13 12,13 C11.4477153,13 11,13.4477153 11,14 L11,22 Z" id="Rectangle-349" stroke="none" fill="#2A2630" transform="translate(16.000000, 18.000000) rotate(-225.000000) translate(-16.000000, -18.000000) "></path>
            <path d="M32,16 C32,24.836556 24.836556,32 16,32 C7.163444,32 0,24.836556 0,16 C0,7.163444 7.163444,0 16,0 C24.836556,0 32,7.163444 32,16 Z M2,16 C2,23.7319865 8.2680135,30 16,30 C23.7319865,30 30,23.7319865 30,16 C30,8.2680135 23.7319865,2 16,2 C8.2680135,2 2,8.2680135 2,16 Z" id="Oval-1" stroke="none" fill="#95909E"></path>
        </g>
    </g>
</svg>